<mxfile host="Electron" agent="Mozilla/5.0 (Windows NT 10.0; Win64; x64) AppleWebKit/537.36 (KHTML, like Gecko) draw.io/24.7.5 Chrome/126.0.6478.183 Electron/31.3.0 Safari/537.36" version="24.7.5">
  <diagram name="Page-1" id="8EkGqibCvBHoBTu_bCx6">
    <mxGraphModel dx="1415" dy="382" grid="1" gridSize="10" guides="1" tooltips="1" connect="1" arrows="1" fold="1" page="1" pageScale="1" pageWidth="850" pageHeight="1100" math="0" shadow="0">
      <root>
        <mxCell id="0" />
        <mxCell id="1" parent="0" />
        <mxCell id="61Gtb_rmeDHRGXsxD0hD-1" value="" style="verticalLabelPosition=bottom;verticalAlign=top;html=1;shape=mxgraph.basic.arc;startAngle=0;endAngle=0.25;strokeWidth=3;" parent="1" vertex="1">
          <mxGeometry x="40" y="70" width="100" height="100" as="geometry" />
        </mxCell>
        <mxCell id="61Gtb_rmeDHRGXsxD0hD-2" value="" style="verticalLabelPosition=bottom;verticalAlign=top;html=1;shape=mxgraph.basic.arc;startAngle=0;endAngle=0.25;strokeWidth=3;strokeColor=#000000;dashed=1;dashPattern=1 1;" parent="1" vertex="1">
          <mxGeometry x="10" y="40" width="160" height="160" as="geometry" />
        </mxCell>
        <mxCell id="61Gtb_rmeDHRGXsxD0hD-3" value="" style="endArrow=classic;startArrow=classic;html=1;rounded=0;entryX=0.749;entryY=0.078;entryDx=0;entryDy=0;entryPerimeter=0;endSize=3;startSize=3;jumpSize=5;exitX=0.76;exitY=0.047;exitDx=0;exitDy=0;exitPerimeter=0;" parent="1" source="61Gtb_rmeDHRGXsxD0hD-1" target="61Gtb_rmeDHRGXsxD0hD-2" edge="1">
          <mxGeometry width="50" height="50" relative="1" as="geometry">
            <mxPoint x="90" y="70" as="sourcePoint" />
            <mxPoint x="220" y="130" as="targetPoint" />
          </mxGeometry>
        </mxCell>
        <mxCell id="61Gtb_rmeDHRGXsxD0hD-4" value="w" style="text;html=1;align=center;verticalAlign=middle;whiteSpace=wrap;rounded=0;" parent="1" vertex="1">
          <mxGeometry x="100" y="50" width="30" height="20" as="geometry" />
        </mxCell>
        <mxCell id="61Gtb_rmeDHRGXsxD0hD-5" value="&lt;font style=&quot;font-size: 9px;&quot;&gt;w = 3.7 meters&lt;/font&gt;" style="text;html=1;align=center;verticalAlign=middle;whiteSpace=wrap;rounded=0;" parent="1" vertex="1">
          <mxGeometry x="120" y="20" width="90" height="20" as="geometry" />
        </mxCell>
        <mxCell id="61Gtb_rmeDHRGXsxD0hD-7" value="" style="endArrow=none;html=1;rounded=0;strokeWidth=1;strokeColor=#0000FF;" parent="1" edge="1">
          <mxGeometry width="50" height="50" relative="1" as="geometry">
            <mxPoint x="60" y="120" as="sourcePoint" />
            <mxPoint x="140" y="120" as="targetPoint" />
          </mxGeometry>
        </mxCell>
        <mxCell id="61Gtb_rmeDHRGXsxD0hD-9" value="w" style="text;html=1;align=center;verticalAlign=middle;whiteSpace=wrap;rounded=0;" parent="1" vertex="1">
          <mxGeometry x="135" y="138" width="30" height="20" as="geometry" />
        </mxCell>
        <mxCell id="61Gtb_rmeDHRGXsxD0hD-11" value="" style="endArrow=classic;startArrow=classic;html=1;rounded=0;endSize=3;startSize=3;jumpSize=5;entryX=0.977;entryY=0.639;entryDx=0;entryDy=0;entryPerimeter=0;" parent="1" edge="1" target="nItG1jZJVdur2Ast2A42-2" source="nItG1jZJVdur2Ast2A42-1">
          <mxGeometry width="50" height="50" relative="1" as="geometry">
            <mxPoint x="314.43" y="200" as="sourcePoint" />
            <mxPoint x="344.43" y="200" as="targetPoint" />
          </mxGeometry>
        </mxCell>
        <mxCell id="61Gtb_rmeDHRGXsxD0hD-13" value="" style="endArrow=none;html=1;rounded=0;strokeWidth=3;" parent="1" edge="1">
          <mxGeometry width="50" height="50" relative="1" as="geometry">
            <mxPoint x="230" y="64" as="sourcePoint" />
            <mxPoint x="210" y="64" as="targetPoint" />
            <Array as="points" />
          </mxGeometry>
        </mxCell>
        <mxCell id="61Gtb_rmeDHRGXsxD0hD-14" value="" style="endArrow=none;html=1;rounded=0;strokeWidth=3;dashed=1;dashPattern=1 1;" parent="1" edge="1">
          <mxGeometry width="50" height="50" relative="1" as="geometry">
            <mxPoint x="230" y="85" as="sourcePoint" />
            <mxPoint x="210" y="85" as="targetPoint" />
            <Array as="points" />
          </mxGeometry>
        </mxCell>
        <mxCell id="61Gtb_rmeDHRGXsxD0hD-17" value="&lt;font style=&quot;font-size: 7px;&quot;&gt;Arc 1&lt;/font&gt;" style="text;html=1;align=center;verticalAlign=middle;whiteSpace=wrap;rounded=0;" parent="1" vertex="1">
          <mxGeometry x="225" y="57" width="60" height="10" as="geometry" />
        </mxCell>
        <mxCell id="61Gtb_rmeDHRGXsxD0hD-20" value="&lt;font style=&quot;font-size: 7px;&quot;&gt;Shifted Arc 1&lt;/font&gt;" style="text;html=1;align=center;verticalAlign=middle;whiteSpace=wrap;rounded=0;" parent="1" vertex="1">
          <mxGeometry x="225" y="78" width="60" height="10" as="geometry" />
        </mxCell>
        <mxCell id="61Gtb_rmeDHRGXsxD0hD-21" value="" style="endArrow=none;html=1;rounded=0;strokeWidth=3;strokeColor=#0000FF;" parent="1" edge="1">
          <mxGeometry width="50" height="50" relative="1" as="geometry">
            <mxPoint x="230" y="107" as="sourcePoint" />
            <mxPoint x="210" y="107" as="targetPoint" />
            <Array as="points" />
          </mxGeometry>
        </mxCell>
        <mxCell id="61Gtb_rmeDHRGXsxD0hD-22" value="" style="endArrow=none;html=1;rounded=0;strokeWidth=3;dashed=1;dashPattern=1 1;strokeColor=#0000FF;" parent="1" edge="1">
          <mxGeometry width="50" height="50" relative="1" as="geometry">
            <mxPoint x="230" y="128" as="sourcePoint" />
            <mxPoint x="210" y="128" as="targetPoint" />
            <Array as="points" />
          </mxGeometry>
        </mxCell>
        <mxCell id="61Gtb_rmeDHRGXsxD0hD-23" value="&lt;font style=&quot;font-size: 7px;&quot;&gt;Arc 2&lt;/font&gt;" style="text;html=1;align=center;verticalAlign=middle;whiteSpace=wrap;rounded=0;" parent="1" vertex="1">
          <mxGeometry x="225" y="100" width="60" height="10" as="geometry" />
        </mxCell>
        <mxCell id="61Gtb_rmeDHRGXsxD0hD-24" value="&lt;span style=&quot;font-size: 7px;&quot;&gt;Shifted&amp;nbsp;&lt;/span&gt;&lt;span style=&quot;font-size: 7px;&quot;&gt;Arc 2&lt;/span&gt;" style="text;html=1;align=center;verticalAlign=middle;whiteSpace=wrap;rounded=0;" parent="1" vertex="1">
          <mxGeometry x="225" y="121" width="60" height="10" as="geometry" />
        </mxCell>
        <mxCell id="nItG1jZJVdur2Ast2A42-1" value="" style="verticalLabelPosition=bottom;verticalAlign=top;html=1;shape=mxgraph.basic.arc;startAngle=0.25;endAngle=0.5;strokeWidth=3;strokeColor=#0000FF;" vertex="1" parent="1">
          <mxGeometry x="-20" y="46.559999999999995" width="160" height="146.88" as="geometry" />
        </mxCell>
        <mxCell id="nItG1jZJVdur2Ast2A42-2" value="" style="verticalLabelPosition=bottom;verticalAlign=top;html=1;shape=mxgraph.basic.arc;startAngle=0.2597320323466235;endAngle=0.4967851859218625;strokeWidth=3;strokeColor=#0000FF;dashed=1;dashPattern=1 1;" vertex="1" parent="1">
          <mxGeometry x="-50" y="8.52" width="220" height="211.48" as="geometry" />
        </mxCell>
        <mxCell id="nItG1jZJVdur2Ast2A42-3" value="" style="endArrow=none;html=1;rounded=0;strokeWidth=1;strokeColor=#0000FF;entryX=0.501;entryY=0.994;entryDx=0;entryDy=0;entryPerimeter=0;" edge="1" parent="1" target="nItG1jZJVdur2Ast2A42-1">
          <mxGeometry width="50" height="50" relative="1" as="geometry">
            <mxPoint x="60" y="120" as="sourcePoint" />
            <mxPoint x="150" y="130" as="targetPoint" />
          </mxGeometry>
        </mxCell>
        <mxCell id="nItG1jZJVdur2Ast2A42-5" value="&lt;font style=&quot;font-size: 12px;&quot; color=&quot;#0000ff&quot;&gt;R&lt;/font&gt;&lt;font style=&quot;font-size: 6px;&quot; color=&quot;#0000ff&quot;&gt;2&lt;/font&gt;" style="text;html=1;align=center;verticalAlign=middle;whiteSpace=wrap;rounded=0;" vertex="1" parent="1">
          <mxGeometry x="30" y="140" width="30" height="20" as="geometry" />
        </mxCell>
        <mxCell id="nItG1jZJVdur2Ast2A42-7" value="" style="endArrow=none;html=1;rounded=0;strokeWidth=1;strokeColor=#000000;entryX=0.504;entryY=0.006;entryDx=0;entryDy=0;entryPerimeter=0;" edge="1" parent="1" target="61Gtb_rmeDHRGXsxD0hD-1">
          <mxGeometry width="50" height="50" relative="1" as="geometry">
            <mxPoint x="90" y="120" as="sourcePoint" />
            <mxPoint x="150" y="130" as="targetPoint" />
          </mxGeometry>
        </mxCell>
        <mxCell id="nItG1jZJVdur2Ast2A42-8" value="R&lt;font style=&quot;font-size: 6px;&quot;&gt;1&lt;/font&gt;" style="text;html=1;align=center;verticalAlign=middle;whiteSpace=wrap;rounded=0;" vertex="1" parent="1">
          <mxGeometry x="60" y="84" width="30" height="20" as="geometry" />
        </mxCell>
      </root>
    </mxGraphModel>
  </diagram>
</mxfile>
